<!-- Generated by IcoMoon.io -->
<svg version="1.1" xmlns="http://www.w3.org/2000/svg" width="32" height="32" viewBox="0 0 32 32">
<path fill="#1b414b" d="M8 0h16c4.418 0 8 3.582 8 8v16c0 4.418-3.582 8-8 8h-16c-4.418 0-8-3.582-8-8v-16c0-4.418 3.582-8 8-8z"></path>
<path fill="#fbfbfb" d="M7.37 10.818h1.744l2.66 4.629h0.11l2.66-4.629h1.744l-3.694 6.185v3.997h-1.53v-3.997l-3.695-6.185zM17.14 21h-1.63l3.663-10.182h1.775l3.664 10.182h-1.63l-2.88-8.332h-0.079l-2.883 8.332zM17.413 17.013h5.29v1.292h-5.29v-1.292z"></path>
</svg>
